# xmcd
#
# Track frame offsets: 
#        187
#        19700
#        41545
#        61027
#
# Disc length: 1103 seconds
#
# Revision: 3
# Processed by: cddbd v1.5.2PL0 Copyright (c) Steve Scherf et al.
# Submitted via: ExactAudioCopy v1.3
#
DISCID=25044d04
DTITLE=SMAP - KANSHAして
DYEAR=1995
DGENRE=JPop
TTITLE0=KANSHAして
TTITLE1=仰げば尊し
TTITLE2=KANSHAして（カラオケ）
TTITLE3=仰げば尊し（カラオケ）
EXTD=YEAR: 1995
EXTT0=
EXTT1=
EXTT2=
EXTT3=
PLAYORDER=
